<svg width="441" height="380" viewBox="0 0 441 380" fill="none" xmlns="http://www.w3.org/2000/svg">
<path d="M423.802 262.425L422.82 260.069L425.597 262.259C426.927 263.308 428.674 263.668 430.311 263.232C431.821 262.829 433.08 261.789 433.762 260.383L435.52 256.759C436.605 254.522 436.654 251.922 435.655 249.645L435.6 249.52C434.589 247.217 432.577 245.504 430.142 244.875C427.289 244.137 424.259 244.986 422.205 247.099L421.268 248.063L420.636 267.168L419.894 271.554C418.796 278.05 415.388 283.931 410.299 288.115L408.144 289.887C404.645 292.763 400.257 294.335 395.728 294.335C391.758 294.335 387.883 293.127 384.617 290.871L382.307 289.276C377.415 285.897 373.699 281.076 371.678 275.485L371.139 273.994C369.513 269.495 368.869 264.7 369.251 259.932L370.768 240.964L372.36 242.151C377.558 246.027 383.664 248.504 390.093 249.344L394.873 249.969C397.629 250.329 400.43 250.035 403.051 249.111L406.575 247.869C408.317 247.254 409.78 246.032 410.695 244.426L411.231 243.484C413.04 240.307 411.923 236.264 408.738 234.467C406.986 233.478 404.877 233.343 403.012 234.1L402.846 234.167C401.099 234.876 399.713 236.262 399.005 238.01L398.623 238.951C397.428 241.9 394.819 244.042 391.693 244.638L391.321 244.709C387.587 245.422 383.769 243.971 381.451 240.956L379.729 238.717C376.653 234.717 375.851 229.416 377.605 224.685L378.204 223.072C378.945 221.072 380.198 219.301 381.838 217.936L382.257 217.587C384.179 215.988 386.599 215.112 389.099 215.112H391.211C394.501 215.112 397.43 213.028 398.509 209.92L398.543 209.822C399.106 208.199 399.09 206.431 398.497 204.819L397.563 202.28C397.048 200.881 395.716 199.951 394.225 199.951H393.891C391.734 199.951 390.158 201.986 390.698 204.074C390.802 204.476 390.981 204.856 391.226 205.192L393.475 208.276H391.005C387.816 208.276 385.231 205.691 385.231 202.502C385.231 199.827 387.068 197.502 389.671 196.884L391.636 196.418C395.416 195.52 399.315 197.357 401.031 200.843L401.854 202.516C403.391 205.638 403.308 209.314 401.632 212.364L401.285 212.994C399.598 216.064 396.658 218.247 393.232 218.976L391.815 219.277C389.518 219.765 387.365 220.779 385.525 222.238L384.35 223.17C383.398 223.925 382.607 224.862 382.024 225.928L381.777 226.379C379.884 229.836 380.632 234.144 383.581 236.759L384.624 237.684C386.816 239.628 390.027 239.893 392.507 238.333C393.148 237.93 393.714 237.42 394.182 236.825L396.619 233.722C397.595 232.48 398.814 231.451 400.202 230.697L400.448 230.564C403.728 228.783 407.685 228.776 410.973 230.544C416.231 233.373 418.297 239.863 415.642 245.212L415.178 246.147C413.656 249.214 410.91 251.496 407.615 252.431L404.271 253.381C401.53 254.159 398.655 254.342 395.838 253.919L386.575 252.528C381.336 251.741 376.445 249.426 372.515 245.872L373.296 261.574C373.48 265.273 374.324 268.91 375.787 272.313L376.871 274.834C378.481 278.578 381.118 281.791 384.477 284.099L385.549 284.836C388.715 287.013 392.503 288.1 396.341 287.934C400.472 287.756 404.409 286.138 407.471 283.361L408.671 282.273C411.91 279.336 414.209 275.507 415.278 271.268L416.299 267.224C416.852 265.03 417.198 262.788 417.331 260.529L418.191 245.872L420.698 243.382C423.67 240.43 428.028 239.359 432.029 240.598C436.043 241.841 439.038 245.204 439.811 249.334L440.038 250.545C440.656 253.851 440.006 257.269 438.217 260.117L436.122 263.451C434.807 265.544 432.48 266.783 430.009 266.705C427.28 266.62 424.852 264.946 423.802 262.425Z" fill="#A71363"/>
<path d="M306.578 295.874L263.28 269.547L302.192 301.91C308.333 307.017 317.484 306.018 322.378 299.707C327.622 292.946 325.694 283.111 318.285 278.83L254.489 241.962C248.407 238.447 244.662 231.957 244.662 224.933V174.527C244.662 163.665 253.467 154.859 264.33 154.859H308.46L372.226 162.068C383.889 163.386 394.104 154.262 394.104 142.524V27.9603C394.104 17.8445 386.43 9.37837 376.363 8.387L308.46 1.70019L222.385 0L143.131 2.68674L73.5394 7.02388C63.34 7.65953 55.3267 16.0002 55.0996 26.2168L52.5226 142.183C52.2591 154.04 62.4708 163.431 74.2641 162.178L143.131 154.859H183.289C194.151 154.859 202.957 163.665 202.957 174.527V225.164C202.957 232.063 199.342 238.458 193.43 242.016L132.274 278.818C125.192 283.08 123.577 292.653 128.868 299.003C133.088 304.066 140.349 305.337 146.037 302.008L179.871 282.208L225.051 249.44L142.301 296.131C138.849 298.078 134.48 297.034 132.282 293.737C129.833 290.064 131.034 285.083 134.887 282.93L199.835 246.629C206.055 243.153 209.908 236.585 209.908 229.461V167.577C209.908 156.714 201.102 147.909 190.24 147.909H143.131L81.0226 153.084C69.5558 154.04 59.7213 144.991 59.7213 133.484V35.182C59.7213 24.9529 67.5622 16.4314 77.7559 15.5819L143.131 10.134L222.385 7.44727L308.46 10.134L369.944 15.5139C380.103 16.4028 387.898 24.9091 387.898 35.107V133.395C387.898 144.934 378.01 153.994 366.515 152.988L308.46 147.909H258.124C247.261 147.909 238.456 156.714 238.456 167.577V229.427C238.456 236.569 242.328 243.151 248.572 246.62L314.062 283.003C317.865 285.115 319.054 290.023 316.642 293.642C314.428 296.963 309.988 297.948 306.578 295.874Z" fill="#A71363"/>
<path d="M404.138 337.935L378.493 343.944L400.852 336.301C400.931 336.274 400.979 336.195 400.967 336.113C399.704 327.69 392.469 321.458 383.951 321.458H382.234L386.414 334.653L380.224 322.462C374.767 325.495 371.712 331.55 372.516 337.741L373.539 345.612C373.974 348.955 375.033 352.187 376.66 355.139L380.538 362.174C381.966 364.764 384.182 366.832 386.864 368.078L387.08 368.178C392.207 370.56 398.273 369.515 402.307 365.555C404.908 363.002 406.374 359.511 406.374 355.867V342.983L408.357 353.557C409.301 358.589 407.785 363.769 404.277 367.498C400.124 371.913 393.836 373.609 388.027 371.881L387.758 371.801C383.645 370.578 380.172 367.8 378.074 364.057L374.281 357.289C371.836 352.926 370.338 348.098 369.883 343.117L369.125 334.805C368.83 331.578 369.534 328.338 371.142 325.525C374.573 319.52 381.509 316.442 388.264 317.927L389.191 318.13C395.124 319.435 399.92 323.788 401.79 329.567L404.367 337.529C404.424 337.705 404.318 337.893 404.138 337.935Z" fill="#A71363"/>
<path d="M103.544 322.688L97.4419 353.604L106.423 327.475C107.663 323.869 111.041 321.435 114.855 321.402L329.434 319.503C333.111 319.47 336.438 321.678 337.837 325.079L352.513 360.77C354.949 366.693 350.594 373.193 344.19 373.193H108.216C106.426 373.193 104.976 374.643 104.976 376.432C104.976 378.241 106.457 379.699 108.266 379.671L350.274 375.912C356.662 375.812 360.916 369.273 358.417 363.392L340.362 320.91C338.95 317.588 335.689 315.431 332.079 315.431H112.373C108.075 315.431 104.376 318.47 103.544 322.688Z" fill="#A71363"/>
<path d="M119.105 337.785L114.756 349.159C114.311 350.323 113.194 351.092 111.948 351.092C109.816 351.092 108.361 348.934 109.161 346.958L114.509 333.745C115.426 331.48 117.626 329.997 120.07 329.997H188.486C192.611 329.997 195.147 334.511 193 338.033C190.854 341.555 193.389 346.069 197.514 346.069H223.63C227.606 346.069 230.482 342.272 229.406 338.445L228.253 334.348C227.639 332.164 229.281 329.997 231.55 329.997H271.588C275.21 329.997 277.463 333.929 275.632 337.054C273.744 340.274 276.194 344.301 279.922 344.105L320.269 341.98C323.322 341.819 324.677 338.064 322.43 335.991L320.841 334.525C319.095 332.914 320.235 329.997 322.611 329.997C323.724 329.997 324.715 330.703 325.078 331.756L326.751 336.607C328.094 340.503 325.2 344.563 321.079 344.563H314.312C310.661 344.563 307.856 347.797 308.372 351.411L309.148 356.838C309.548 359.637 307.375 362.142 304.547 362.142H304.115C300.061 362.142 298.095 357.185 301.047 354.407C304.079 351.553 301.914 346.469 297.756 346.677L277.574 347.686C273.95 347.867 271.39 344.188 272.82 340.853C274.207 337.616 271.832 334.015 268.31 334.015H237.51C233.871 334.015 231.331 337.62 232.555 341.047C233.779 344.474 231.238 348.079 227.599 348.079H209.836C206.189 348.079 204.259 352.391 206.687 355.11L207.751 356.302C209.768 358.561 208.164 362.142 205.136 362.142H203.873C200.616 362.142 199.474 357.821 202.306 356.212C205.026 354.667 204.103 350.533 200.983 350.292L191.87 349.585C187.947 349.585 185.396 345.457 187.15 341.948L187.55 341.148C189.512 337.223 186.599 332.619 182.212 332.712L124.583 333.93C122.142 333.981 119.977 335.506 119.105 337.785Z" fill="#A71363"/>
<path d="M149.486 359.71L107.471 360.604C106.643 360.621 105.981 361.298 105.981 362.126C105.981 362.967 106.663 363.649 107.504 363.649H183.708C185.164 363.649 186.345 362.468 186.345 361.012C186.345 359.461 185.014 358.245 183.469 358.386L164.222 360.135C161.51 360.382 159.35 357.906 159.962 355.252L162.11 345.946C162.688 343.44 160.785 341.047 158.212 341.047H157.989C155.864 341.047 154.11 342.709 153.995 344.831L153.395 355.927C153.282 358.016 151.578 359.665 149.486 359.71Z" fill="#A71363"/>
<path d="M249.741 357.622H228.285C226.76 357.622 225.523 358.859 225.523 360.384C225.523 361.91 226.76 363.147 228.285 363.147H281.527C283.053 363.147 284.289 361.91 284.289 360.384C284.289 358.859 283.053 357.622 281.527 357.622H262.526C260.821 357.622 259.304 356.541 258.746 354.93L255.61 345.871C255.339 345.088 254.601 344.563 253.772 344.563C252.464 344.563 251.529 345.829 251.913 347.08L253.565 352.446C254.356 355.018 252.433 357.622 249.741 357.622Z" fill="#A71363"/>
<path d="M323.813 353.26L325.442 360.319C325.756 361.68 326.968 362.645 328.365 362.645H333.665C335.77 362.645 337.221 360.533 336.465 358.568L333.75 351.508C333.304 350.35 332.191 349.585 330.95 349.585H326.736C324.807 349.585 323.379 351.38 323.813 353.26Z" fill="#A71363"/>
<path d="M273.1 70.8908C279.178 77.3395 278.139 87.6748 270.899 92.7849L241.257 113.709L264.007 91.4536C268.969 86.5991 269.817 78.9175 266.033 73.0976L245.677 41.7911L273.1 70.8908Z" fill="#A71363"/>
<path d="M207.027 105.586L246.697 38.7307L215.453 109.915C214.468 112.161 211.934 113.286 209.607 112.51C206.736 111.553 205.482 108.189 207.027 105.586Z" fill="#A71363"/>
<path d="M169.801 61.7474L198.072 41.7912L176.175 63.2119C170.717 68.5518 169.784 77.0015 173.947 83.4034L193.651 113.709L167.379 85.831C160.695 78.7373 161.837 67.3685 169.801 61.7474Z" fill="#A71363"/>
<path d="M8.93944 287.064L3.063 307.417L1.66674 288.35C1.40088 284.72 4.27455 281.628 7.91463 281.628H17.5066L13.1989 280.223C8.46695 278.678 4.63584 275.16 2.69494 270.577C0.965495 266.493 0.880351 261.898 2.45728 257.753L3.76609 254.312C5.07432 250.873 7.08794 247.746 9.67741 245.132L13.3116 241.463C14.3196 240.446 15.4293 239.534 16.6232 238.743C22.5224 234.832 29.9962 234.161 36.4977 236.958L40.6835 238.759L32.7293 242.724C29.9973 244.086 27.5604 245.973 25.5578 248.277L22.7731 251.481C20.8932 253.644 19.8579 256.413 19.8579 259.279C19.8579 262.437 21.115 265.466 23.3516 267.696L26.5758 270.911L25.1397 267.88C23.5035 264.427 23.1215 260.512 24.0593 256.808C24.5023 255.058 25.2304 253.393 26.2145 251.88L26.4477 251.521C28.9677 247.647 32.8124 244.823 37.2633 243.577L43.7065 241.773L41.3553 249.141L40.0353 255.283C39.5768 257.417 39.5728 259.622 40.0236 261.757C40.4589 263.819 41.3093 265.771 42.5228 267.494L43.1616 268.401L48.0732 274.595L47.4014 258.519L46.685 245.51L46.0578 239.094L43.3706 237.084L36.4812 234.359C33.3505 233.12 32.1886 229.289 34.1039 226.52C36.4125 223.183 41.4773 223.632 43.1628 227.323L44.7142 230.721L44.6035 227.14C44.5113 224.158 47.2257 221.87 50.1491 222.467C53.5358 223.157 54.9947 227.184 52.8364 229.884L51.0963 232.061L54.1568 229.393C56.489 227.36 60.1092 228.049 61.5323 230.796C62.7945 233.233 61.7474 236.229 59.2422 237.349L56.0901 238.759L57.6874 239.764L65.0645 243.225C67.2698 244.26 69.295 245.641 71.0631 247.317L71.2277 247.473C74.8836 250.938 77.25 255.544 77.9369 260.534L78.4396 264.186C78.9426 267.84 77.9313 271.541 75.6401 274.431C72.6601 278.19 67.9116 280.089 63.1613 279.422L62.1809 279.284L62.6936 269.314C62.7993 267.259 62.6731 265.199 62.3174 263.173L61.5341 258.709C60.8692 254.921 58.8263 251.513 55.7988 249.141C58.8776 255.281 60.2565 262.133 59.7921 268.986L58.925 281.782C58.8692 282.605 59.5218 283.303 60.3467 283.303H72.5937L81.4852 301.699C83.5434 305.957 80.3211 310.873 75.5952 310.685L35.645 309.091L12.1322 307.417H69.816C74.5598 307.417 77.5824 302.349 75.3281 298.175L69.3122 287.036H61.4016C57.4875 287.036 54.5319 283.487 55.2405 279.637L55.7988 276.605V272.83C55.7988 263.338 54.4415 253.895 51.7681 244.787L55.7061 245.755C63.6953 247.717 69.3122 254.88 69.3122 263.107C69.3122 266.099 68.5608 269.043 67.127 271.669L64.868 275.807C68.3472 275.807 71.3554 273.381 72.0923 269.981L72.4169 268.483C72.5345 267.94 72.6032 267.388 72.6223 266.833L72.6626 265.654C72.9099 258.441 69.6333 251.522 63.9206 247.111C63.0753 246.459 62.1795 245.863 61.2503 245.337L56.5129 242.654L50.1309 239.933L57.9454 234.481C58.7914 233.89 58.9789 232.716 58.3589 231.892C57.8446 231.208 56.924 230.974 56.146 231.33L49.4168 234.405L50.9769 228.701C51.2392 227.742 50.7659 226.735 49.8603 226.324C48.7394 225.816 47.4284 226.418 47.0829 227.599L45.386 233.4L41.0082 228.55C40.113 227.559 38.5589 227.551 37.6548 228.535C36.6426 229.636 36.9543 231.398 38.2828 232.085L44.7142 235.41L47.4014 238.089L49.4168 243.448L52.5573 260.037L50.4245 276.605L41.5338 272.532C39.2442 271.483 37.381 269.684 36.2521 267.433C35.8489 266.629 35.5452 265.778 35.3479 264.901L35.1731 264.124C34.3541 260.482 34.716 256.674 36.2061 253.252L37.0177 251.389C37.6684 249.894 38.4709 248.471 39.4126 247.141L42.027 243.448L37.7086 246.478C35.2119 248.23 33.1545 250.536 31.6976 253.215C30.7517 254.955 30.0726 256.827 29.6831 258.769L29.257 260.893C28.8142 263.101 28.5912 265.347 28.5912 267.598V276.605L18.5753 268.074C16.1738 266.029 14.6732 263.121 14.3977 259.979C14.1098 256.695 15.1841 253.437 17.3689 250.969L20.4374 247.502C23.2425 244.332 26.875 242.007 30.9275 240.787L37.6604 238.759C33.9089 238.319 30.1065 238.789 26.5754 240.131L22.9513 241.507C19.5816 242.787 16.5119 244.748 13.9338 247.267L12.932 248.246C10.6397 250.486 8.90814 253.235 7.87795 256.27L7.53051 257.293C6.37339 260.702 6.32499 264.39 7.39224 267.828C9.09296 273.306 13.4349 277.562 18.9464 279.153L29.8268 282.293C30.9271 282.611 30.7409 284.223 29.5972 284.282L11.2654 285.219C10.1761 285.275 9.24201 286.016 8.93944 287.064Z" fill="#A71363"/>
<path d="M401.654 258.309L397.804 258.827L401.03 259.152C402.859 259.337 403.572 261.624 402.173 262.815C401.602 263.301 401.336 264.056 401.477 264.793L401.489 264.857C401.636 265.629 402.183 266.263 402.925 266.522L405.105 267.282L401.799 268.797C401.439 268.962 401.128 269.217 400.896 269.538C400.066 270.687 400.466 272.305 401.736 272.935L403.118 273.62C403.613 273.866 403.926 274.371 403.926 274.924C403.926 275.646 403.397 276.258 402.683 276.363L397.804 277.08L401.25 277.737L402.403 277.963C403.389 278.157 404.412 278.011 405.305 277.55L406.035 277.173C406.556 276.904 406.957 276.45 407.16 275.899C407.557 274.818 407.109 273.607 406.103 273.045L404.775 272.304C404.678 272.249 404.585 272.188 404.496 272.12L404.292 271.965C403.703 271.515 403.422 270.769 403.568 270.043C403.693 269.42 404.115 268.898 404.698 268.646L407.85 267.282L404.922 265.848C404.728 265.754 404.553 265.626 404.403 265.47C403.708 264.749 403.714 263.605 404.416 262.891L404.528 262.777C404.898 262.4 405.105 261.893 405.105 261.365V261.102C405.105 260.15 404.596 259.271 403.77 258.797L403.576 258.685C402.994 258.352 402.318 258.219 401.654 258.309Z" fill="#A71363"/>
<path d="M391.945 258.309L395.795 258.827L392.569 259.152C390.74 259.337 390.027 261.624 391.426 262.815C391.997 263.301 392.263 264.056 392.122 264.793L392.11 264.857C391.963 265.629 391.416 266.263 390.674 266.522L388.494 267.282L391.8 268.797C392.16 268.962 392.471 269.217 392.703 269.538C393.533 270.687 393.133 272.305 391.863 272.935L390.481 273.62C389.986 273.866 389.673 274.371 389.673 274.924C389.673 275.646 390.202 276.258 390.916 276.363L395.795 277.08L392.349 277.737L391.196 277.963C390.21 278.157 389.187 278.011 388.294 277.55L387.564 277.173C387.043 276.904 386.642 276.45 386.439 275.899C386.042 274.818 386.49 273.607 387.496 273.045L388.824 272.304C388.921 272.249 389.014 272.188 389.103 272.12L389.307 271.965C389.896 271.515 390.177 270.769 390.031 270.043C389.906 269.42 389.484 268.898 388.901 268.646L385.749 267.282L388.677 265.848C388.871 265.754 389.046 265.626 389.196 265.47C389.891 264.749 389.885 263.605 389.183 262.891L389.071 262.777C388.701 262.4 388.494 261.893 388.494 261.365V261.102C388.494 260.15 389.003 259.271 389.829 258.797L390.023 258.685C390.605 258.352 391.281 258.219 391.945 258.309Z" fill="#A71363"/>
<path d="M30.4348 289.949L50.4207 291.697L50.154 294.746L30.9434 292.229L30.4348 289.949Z" fill="#A71363"/>
<path d="M30.4348 296.749L50.154 299.798L50.154 301.547L30.1681 299.798L30.4348 296.749Z" fill="#A71363"/>
<path d="M32.1412 303.77L39.0029 284.918L41.8787 285.965L34.0038 304.13L32.1412 303.77Z" fill="#A71363"/>
<path d="M38.7102 305.53L46.7551 287.128L48.4477 287.725L41.586 306.577L38.7102 305.53Z" fill="#A71363"/>
</svg>
